<svg width="100" height="100" viewBox="0 0 100 100" fill="none" xmlns="http://www.w3.org/2000/svg">
<path d="M63.5 43.7885C61.9343 44.5231 60.409 45.5988 59.0176 47.043L47.2283 59.2787C44.1749 62.4477 40.4232 64.6476 36.5 65.7307L36.5 83.5H27.5L27.5 66.2021C23.8912 65.5533 20.4804 63.8411 17.6915 60.9466L14.917 58.0671L21.1638 51.5837L24.0157 54.5435C24.9844 55.5489 26.1744 56.3079 27.5 56.7955L27.5 16.5H36.5L36.5 56.2115C38.0657 55.4769 39.591 54.4012 40.9824 52.957L52.7717 40.7213C55.8251 37.5523 59.5768 35.3524 63.5 34.2693V16.5H72.5V33.7979C76.1088 34.4468 79.5196 36.1589 82.3085 39.0534L85.083 41.9329L78.8362 48.4163L75.9843 45.4565C75.0156 44.4511 73.8256 43.6921 72.5 43.2045L72.5 83.5H63.5L63.5 43.7885Z" fill="black"/>
</svg>
