<svg width="100" height="100" viewBox="0 0 100 100" fill="none" xmlns="http://www.w3.org/2000/svg">
	<path d="M36.5 83.5L36.5 16.5H27.5L27.5 83.5H36.5Z" fill="current"/>
	<path d="M72.5 83.5L72.5 16.5H63.5L63.5 83.5H72.5Z" fill="current"/>
	<path d="M82.3085 39.0534C74.2455 30.685 60.9829 32.1991 52.7717 40.7213L40.9824 52.957C35.5 58.6471 27.9405 58.6169 24.0157 54.5435L21.1638 51.5837L14.917 58.0671L17.6915 60.9466C25.7545 69.315 39.0171 67.8009 47.2283 59.2787L59.0176 47.043C64.5 41.3529 72.0595 41.3831 75.9843 45.4565L78.8362 48.4163L85.083 41.9329L82.3085 39.0534Z" fill="current">
		<animate
			attributeName="opacity"
			values="0; 1; 1; 1; 0"
			keyTimes="0; 0.3; 0.5; 0.7; 1"
      dur="1s"
      repeatCount="indefinite" />
	</path>
</svg>
