<svg width="100" height="100" viewBox="0 0 100 100" fill="none" xmlns="http://www.w3.org/2000/svg">
<path fill-rule="evenodd" clip-rule="evenodd" d="M80 50C80 66.5685 66.5685 80 50 80C33.4315 80 20 66.5685 20 50C20 33.4315 33.4315 20 50 20C66.5685 20 80 33.4315 80 50ZM48 30C48 31.6569 46.6569 33 45 33C43.3431 33 42 31.6569 42 30C42 28.3431 43.3431 27 45 27C46.6569 27 48 28.3431 48 30ZM55 43C56.6569 43 58 41.6569 58 40C58 38.3431 56.6569 37 55 37C53.3431 37 52 38.3431 52 40C52 41.6569 53.3431 43 55 43ZM48 50C48 51.6569 46.6569 53 45 53C43.3431 53 42 51.6569 42 50C42 48.3431 43.3431 47 45 47C46.6569 47 48 48.3431 48 50ZM35 43C36.6569 43 38 41.6569 38 40C38 38.3431 36.6569 37 35 37C33.3431 37 32 38.3431 32 40C32 41.6569 33.3431 43 35 43ZM41 33C41 34.6569 39.6569 36 38 36C36.3431 36 35 34.6569 35 33C35 31.3431 36.3431 30 38 30C39.6569 30 41 31.3431 41 33ZM52 36C53.6569 36 55 34.6569 55 33C55 31.3431 53.6569 30 52 30C50.3431 30 49 31.3431 49 33C49 34.6569 50.3431 36 52 36ZM55 47C55 48.6569 53.6569 50 52 50C50.3431 50 49 48.6569 49 47C49 45.3431 50.3431 44 52 44C53.6569 44 55 45.3431 55 47ZM38 50C39.6569 50 41 48.6569 41 47C41 45.3431 39.6569 44 38 44C36.3431 44 35 45.3431 35 47C35 48.6569 36.3431 50 38 50Z" fill="black"/>
</svg>
